<svg width="400" height="200" viewBox="0 0 400 200" fill="none" xmlns="http://www.w3.org/2000/svg">
<rect width="400" height="200" rx="12" fill="white"/>
<g clip-path="url(#clip0)">
<path d="M39.2215 64.4977C43.1382 64.4977 46.418 66.5176 47.9147 68.7298V65.0427H53.9012V92.455H49.6023C49.1558 92.4516 48.7284 92.2715 48.4127 91.9536C48.0969 91.6356 47.918 91.2054 47.9147 90.7557V88.8C46.3862 90.9802 43.1382 93.0321 39.2215 93.0321C31.7702 93.0321 26.1022 86.6198 26.1022 78.7969C26.1022 70.974 31.732 64.4977 39.2215 64.4977ZM40.3042 69.9802C35.464 69.9802 32.1842 73.8275 32.1842 78.7328C32.1842 83.6382 35.4322 87.5176 40.3042 87.5176C45.1762 87.5176 48.4241 83.6702 48.4241 78.7649C48.4241 73.8595 45.1443 69.9802 40.3042 69.9802Z" fill="black"/>
<path d="M60.709 65.0427H66.6955V68.7618C68.3195 66.0366 71.4401 64.4977 74.9747 64.4977C81.2796 64.4977 85.3555 68.9863 85.3555 75.9435V92.4229H81.0885C80.642 92.4195 80.2146 92.2394 79.8988 91.9215C79.5831 91.6036 79.4042 91.1733 79.4009 90.7237V76.9374C79.4009 72.6092 77.2355 69.9802 73.7328 69.9802C69.7524 69.9802 66.7273 73.0901 66.7273 78.9573V92.4229H62.4285C61.9819 92.4195 61.5546 92.2394 61.2388 91.9215C60.923 91.6036 60.7442 91.1733 60.7408 90.7237L60.709 65.0427Z" fill="black"/>
<path d="M103.194 64.4977C107.111 64.4977 110.39 66.5176 111.887 68.7298V51.3527H117.874V92.455H113.607C113.16 92.4516 112.733 92.2715 112.417 91.9536C112.101 91.6356 111.922 91.2054 111.919 90.7557V88.8C110.39 90.9802 107.142 93.0321 103.226 93.0321C95.7745 93.0321 90.1064 86.6198 90.1064 78.7969C90.1064 70.974 95.7427 64.4977 103.194 64.4977ZM104.308 69.9802C99.4683 69.9802 96.1885 73.8275 96.1885 78.7328C96.1885 83.6382 99.4683 87.4855 104.308 87.4855C109.149 87.4855 112.428 83.6382 112.428 78.7328C112.428 73.8275 109.149 69.9802 104.308 69.9802Z" fill="black"/>
<path d="M124.688 65.0427H130.674V69.916C131.202 68.4154 132.176 67.1148 133.463 66.1912C134.751 65.2675 136.29 64.7658 137.871 64.7542C138.651 64.7479 139.43 64.8231 140.196 64.9786V71.1664C139.23 70.8458 138.219 70.6835 137.202 70.6855C133.763 70.6855 130.674 73.6031 130.674 79.0855V92.455H126.376C125.929 92.4516 125.502 92.2715 125.186 91.9536C124.87 91.6356 124.691 91.2054 124.688 90.7557V65.0427Z" fill="black"/>
<path d="M156.34 93C148.284 93 142.074 86.684 142.074 78.7649C142.074 70.8458 148.284 64.5298 156.34 64.5298C164.396 64.5298 170.606 70.8458 170.606 78.7649C170.606 86.684 164.396 93 156.34 93ZM156.34 87.4214C161.116 87.4214 164.492 83.6382 164.492 78.7649C164.492 73.8916 161.116 70.1084 156.34 70.1084C151.5 70.1084 148.124 73.8916 148.124 78.7649C148.124 83.6382 151.5 87.4214 156.34 87.4214Z" fill="black"/>
<path d="M178.471 59.0794C177.944 59.0794 177.422 58.9749 176.935 58.7719C176.449 58.5689 176.006 58.2713 175.634 57.8962C175.261 57.5211 174.966 57.0757 174.764 56.5856C174.562 56.0955 174.459 55.5702 174.459 55.0397C174.459 54.5092 174.562 53.9839 174.764 53.4938C174.966 53.0037 175.261 52.5583 175.634 52.1832C176.006 51.8081 176.449 51.5105 176.935 51.3075C177.422 51.1045 177.944 51 178.471 51C178.998 51 179.519 51.1045 180.006 51.3075C180.493 51.5105 180.935 51.8081 181.308 52.1832C181.681 52.5583 181.976 53.0037 182.178 53.4938C182.379 53.9839 182.483 54.5092 182.483 55.0397C182.483 55.5702 182.379 56.0955 182.178 56.5856C181.976 57.0757 181.681 57.5211 181.308 57.8962C180.935 58.2713 180.493 58.5689 180.006 58.7719C179.519 58.9749 178.998 59.0794 178.471 59.0794ZM175.478 65.0427H181.464V92.455H177.197C176.751 92.4516 176.323 92.2715 176.007 91.9536C175.692 91.6356 175.513 91.2054 175.509 90.7557L175.478 65.0427Z" fill="black"/>
<path d="M199.487 64.4977C203.404 64.4977 206.684 66.5176 208.18 68.7298V51.3527H214.167V92.455H209.868C209.422 92.4516 208.994 92.2715 208.678 91.9536C208.363 91.6356 208.184 91.2054 208.18 90.7557V88.8C206.652 90.9802 203.404 93.0321 199.487 93.0321C192.036 93.0321 186.368 86.6198 186.368 78.7969C186.368 70.974 192.036 64.4977 199.487 64.4977ZM200.57 69.9802C195.73 69.9802 192.45 73.8275 192.45 78.7328C192.45 83.6382 195.73 87.5176 200.57 87.5176C205.41 87.5176 208.69 83.6702 208.69 78.7649C208.69 73.8595 205.41 69.9802 200.57 69.9802Z" fill="black"/>
<path d="M238.017 92.455C236.718 92.4551 235.424 92.2936 234.164 91.9741C232.996 91.6848 231.894 91.1734 230.916 90.4672C229.96 89.799 229.165 88.9223 228.592 87.9023C227.99 86.8065 227.632 85.5923 227.541 84.3435H231.267C231.449 85.1486 231.784 85.9107 232.254 86.5878C232.673 87.1807 233.216 87.6733 233.846 88.0305C234.476 88.3804 235.151 88.6395 235.852 88.8C236.554 88.9504 237.268 89.0363 237.986 89.0565C239.376 89.0857 240.75 88.7428 241.966 88.0626C242.5 87.7627 242.941 87.3189 243.239 86.781C243.537 86.243 243.681 85.6322 243.654 85.0168C243.667 84.4801 243.575 83.9459 243.383 83.4451C243.191 82.9444 242.902 82.4869 242.533 82.0992C241.8 81.3298 240.558 80.7206 238.839 80.2397L235.4 79.374C233.139 78.7649 231.42 77.8031 230.241 76.4886C229.072 75.1441 228.457 73.401 228.522 71.6153C228.5 70.5917 228.73 69.5785 229.19 68.6656C229.643 67.8045 230.273 67.0504 231.037 66.4534C231.868 65.8243 232.807 65.3568 233.808 65.0748C234.937 64.7536 236.105 64.5918 237.279 64.5939C238.567 64.5715 239.85 64.7777 241.068 65.2031C242.095 65.5892 243.052 66.1415 243.902 66.8382C245.439 68.1509 246.409 70.013 246.609 72.0321H242.915C242.553 70.8111 241.802 69.7442 240.777 68.9965C239.753 68.2488 238.512 67.8621 237.247 67.8962C235.997 67.8681 234.767 68.2139 233.712 68.8901C233.252 69.1753 232.875 69.5772 232.618 70.0554C232.361 70.5337 232.233 71.0716 232.247 71.6153C232.231 72.0926 232.31 72.5683 232.48 73.0143C232.649 73.4604 232.906 73.8677 233.235 74.2122C233.903 74.9176 235.018 75.4626 236.61 75.9115L240.718 76.9695C242.851 77.5145 244.475 78.4443 245.653 79.7908C246.832 81.1374 247.405 82.8046 247.373 84.8244C247.404 86.031 247.153 87.2282 246.64 88.3191C246.181 89.2675 245.491 90.0836 244.634 90.6916C243.728 91.3296 242.713 91.7967 241.641 92.0702C240.448 92.3121 239.235 92.4409 238.017 92.455Z" fill="black"/>
<path d="M263.587 92.1664C262.573 92.161 261.565 92.0099 260.594 91.7176C259.703 91.4334 258.887 90.9513 258.206 90.3069C257.508 89.6308 256.965 88.8104 256.614 87.9023C256.202 86.8073 256.008 85.642 256.04 84.4718V68.6015H250.341V65.0748H256.04V57.6046H259.766V65.0748H267.536V68.6015H259.766V84.1191C259.766 85.829 260.148 87.0153 260.912 87.6779C261.677 88.3511 262.759 88.6718 264.192 88.6718C264.78 88.6676 265.365 88.6139 265.944 88.5115C266.486 88.4218 267.019 88.2822 267.536 88.0947V91.4611C266.278 91.9536 264.937 92.1933 263.587 92.1664Z" fill="black"/>
<path d="M283.107 92.455C281.766 92.468 280.436 92.2175 279.19 91.7176C278.025 91.237 276.973 90.5162 276.102 89.6015C275.202 88.6421 274.506 87.5074 274.057 86.2672C273.56 84.8576 273.312 83.3708 273.325 81.8748V65.0748H277.051V81.3298C277.051 83.6702 277.656 85.4977 278.866 86.8763C279.445 87.5493 280.166 88.085 280.975 88.4452C281.784 88.8055 282.662 88.9813 283.547 88.9603C284.629 88.9599 285.697 88.7076 286.667 88.2229C287.65 87.7125 288.517 87.003 289.215 86.1389C289.979 85.1387 290.562 84.0098 290.934 82.8046C291.36 81.3807 291.564 79.899 291.539 78.4122V65.0748H295.265V91.9099H291.539V87.3893C290.708 88.9892 289.437 90.3138 287.877 91.2046C286.418 92.0208 284.777 92.451 283.107 92.455Z" fill="black"/>
<path d="M314.345 92.455C312.537 92.4651 310.748 92.0937 309.091 91.3649C307.5 90.6608 306.069 89.635 304.888 88.3511C303.679 87.0719 302.728 85.5695 302.086 83.9267C300.748 80.44 300.748 76.5768 302.086 73.0901C302.728 71.4472 303.679 69.9449 304.888 68.6656C306.067 67.3825 307.496 66.3567 309.085 65.6519C310.831 64.8821 312.724 64.5116 314.629 64.567C316.534 64.6225 318.404 65.1025 320.102 65.9725C321.757 66.8092 323.173 68.056 324.216 69.5954V51.6412H327.942V91.9099H324.216V87.3893C323.174 88.9279 321.761 90.1746 320.109 91.0122C318.335 91.965 316.355 92.4606 314.345 92.455ZM314.695 88.9603C316.023 88.9703 317.339 88.7051 318.561 88.1811C319.782 87.6571 320.884 86.8855 321.796 85.9145C322.666 84.9513 323.347 83.8308 323.803 82.6122C324.758 79.9719 324.758 77.077 323.803 74.4366C323.36 73.2023 322.678 72.0689 321.796 71.1023C320.925 70.1654 319.878 69.4106 318.716 68.881C317.555 68.3514 316.301 68.0574 315.027 68.0157C313.752 67.974 312.482 68.1855 311.289 68.6381C310.095 69.0907 309.002 69.7755 308.072 70.6534L307.626 71.1023C306.749 72.0721 306.068 73.2046 305.62 74.4366C304.665 77.077 304.665 79.9719 305.62 82.6122C306.063 83.8368 306.745 84.9596 307.626 85.9145C308.531 86.8876 309.626 87.6608 310.843 88.1851C312.06 88.7095 313.372 88.9734 314.695 88.9603Z" fill="black"/>
<path d="M337.622 56.9954C337.244 57.0089 336.866 56.9415 336.515 56.7979C336.164 56.6542 335.847 56.4375 335.584 56.1618C335.319 55.8974 335.109 55.5828 334.966 55.2361C334.822 54.8894 334.748 54.5176 334.748 54.142C334.748 53.7664 334.822 53.3945 334.966 53.0478C335.109 52.7012 335.319 52.3865 335.584 52.1221C336.117 51.588 336.839 51.2882 337.591 51.2882C338.342 51.2882 339.064 51.588 339.597 52.1221C340.117 52.6639 340.408 53.3882 340.408 54.142C340.408 54.8958 340.117 55.6201 339.597 56.1618C339.345 56.4338 339.039 56.6488 338.699 56.7926C338.358 56.9363 337.991 57.0054 337.622 56.9954ZM335.712 65.0427H339.437V91.8779H335.712V65.0427Z" fill="black"/>
<path d="M359.078 92.455C357.156 92.4782 355.249 92.1073 353.474 91.3649C351.825 90.6643 350.331 89.6398 349.08 88.3511C346.551 85.7005 345.139 82.1677 345.139 78.4924C345.139 74.817 346.551 71.2842 349.08 68.6336C350.331 67.3449 351.825 66.3204 353.474 65.6198C357.067 64.1451 361.09 64.1451 364.683 65.6198C366.332 66.3204 367.826 67.3449 369.077 68.6336C371.606 71.2842 373.018 74.817 373.018 78.4924C373.018 82.1677 371.606 85.7005 369.077 88.3511C367.826 89.6398 366.332 90.6643 364.683 91.3649C362.903 92.0922 360.999 92.4625 359.078 92.455ZM359.078 88.9603C361.107 89.0017 363.098 88.4067 364.775 87.2578C366.452 86.1088 367.733 84.4629 368.44 82.5481C369.395 79.9298 369.395 77.0549 368.44 74.4366C367.737 72.5197 366.457 70.8716 364.778 69.7221C363.1 68.5727 361.107 67.9792 359.078 68.0244C357.644 67.9968 356.221 68.2811 354.907 68.858C353.7 69.3718 352.615 70.1366 351.722 71.1023C350.835 72.0706 350.143 73.203 349.685 74.4366C348.729 77.0549 348.729 79.9298 349.685 82.5481C350.139 83.7841 350.831 84.9173 351.722 85.8824C352.615 86.8481 353.7 87.6129 354.907 88.1267C356.231 88.6734 357.647 88.9565 359.078 88.9603Z" fill="black"/>
</g>
<path d="M127.967 156V141.723H129.627V156H127.967ZM140.633 156V149.076C140.633 148.204 140.434 147.553 140.037 147.123C139.64 146.693 139.018 146.479 138.172 146.479C137.052 146.479 136.232 146.781 135.711 147.387C135.19 147.992 134.93 148.992 134.93 150.385V156H133.309V145.297H134.627L134.891 146.762H134.969C135.301 146.234 135.766 145.827 136.365 145.541C136.964 145.248 137.632 145.102 138.367 145.102C139.656 145.102 140.626 145.414 141.277 146.039C141.928 146.658 142.254 147.65 142.254 149.018V156H140.633ZM152.498 153.08C152.498 154.076 152.127 154.844 151.385 155.385C150.643 155.925 149.601 156.195 148.26 156.195C146.84 156.195 145.734 155.971 144.939 155.521V154.018C145.454 154.278 146.004 154.483 146.59 154.633C147.182 154.783 147.752 154.857 148.299 154.857C149.145 154.857 149.796 154.724 150.252 154.457C150.708 154.184 150.936 153.77 150.936 153.217C150.936 152.8 150.753 152.445 150.389 152.152C150.031 151.853 149.327 151.501 148.279 151.098C147.283 150.727 146.574 150.404 146.15 150.131C145.734 149.851 145.421 149.535 145.213 149.184C145.011 148.832 144.91 148.412 144.91 147.924C144.91 147.051 145.265 146.365 145.975 145.863C146.684 145.355 147.658 145.102 148.895 145.102C150.047 145.102 151.173 145.336 152.273 145.805L151.697 147.123C150.623 146.68 149.65 146.459 148.777 146.459C148.009 146.459 147.43 146.579 147.039 146.82C146.648 147.061 146.453 147.393 146.453 147.816C146.453 148.103 146.525 148.347 146.668 148.549C146.818 148.751 147.055 148.943 147.381 149.125C147.706 149.307 148.331 149.571 149.256 149.916C150.525 150.378 151.382 150.844 151.824 151.312C152.273 151.781 152.498 152.37 152.498 153.08ZM158.602 154.857C158.888 154.857 159.165 154.838 159.432 154.799C159.699 154.753 159.91 154.708 160.066 154.662V155.902C159.891 155.987 159.63 156.055 159.285 156.107C158.947 156.166 158.641 156.195 158.367 156.195C156.297 156.195 155.262 155.105 155.262 152.924V146.557H153.729V145.775L155.262 145.102L155.945 142.816H156.883V145.297H159.988V146.557H156.883V152.855C156.883 153.5 157.036 153.995 157.342 154.34C157.648 154.685 158.068 154.857 158.602 154.857ZM168.797 156L168.475 154.477H168.396C167.863 155.147 167.329 155.603 166.795 155.844C166.268 156.078 165.607 156.195 164.812 156.195C163.751 156.195 162.918 155.922 162.312 155.375C161.714 154.828 161.414 154.05 161.414 153.041C161.414 150.88 163.143 149.747 166.6 149.643L168.416 149.584V148.92C168.416 148.08 168.234 147.462 167.869 147.064C167.511 146.661 166.935 146.459 166.141 146.459C165.249 146.459 164.24 146.732 163.113 147.279L162.615 146.039C163.143 145.753 163.719 145.528 164.344 145.365C164.975 145.202 165.607 145.121 166.238 145.121C167.514 145.121 168.458 145.404 169.07 145.971C169.689 146.537 169.998 147.445 169.998 148.695V156H168.797ZM165.135 154.857C166.144 154.857 166.935 154.581 167.508 154.027C168.087 153.474 168.377 152.699 168.377 151.703V150.736L166.756 150.805C165.467 150.85 164.536 151.052 163.963 151.41C163.396 151.762 163.113 152.312 163.113 153.061C163.113 153.646 163.289 154.092 163.641 154.398C163.999 154.704 164.497 154.857 165.135 154.857ZM174.969 156H173.348V140.805H174.969V156ZM180.027 156H178.406V140.805H180.027V156ZM196.961 152.201C196.961 153.458 196.505 154.438 195.594 155.141C194.682 155.844 193.445 156.195 191.883 156.195C190.19 156.195 188.888 155.977 187.977 155.541V153.939C188.562 154.187 189.201 154.382 189.891 154.525C190.581 154.669 191.264 154.74 191.941 154.74C193.048 154.74 193.882 154.532 194.441 154.115C195.001 153.692 195.281 153.106 195.281 152.357C195.281 151.863 195.18 151.459 194.979 151.146C194.783 150.827 194.451 150.535 193.982 150.268C193.52 150.001 192.814 149.698 191.863 149.359C190.535 148.884 189.585 148.321 189.012 147.67C188.445 147.019 188.162 146.169 188.162 145.121C188.162 144.021 188.576 143.145 189.402 142.494C190.229 141.843 191.323 141.518 192.684 141.518C194.103 141.518 195.408 141.778 196.6 142.299L196.082 143.744C194.904 143.249 193.758 143.002 192.645 143.002C191.766 143.002 191.079 143.191 190.584 143.568C190.089 143.946 189.842 144.47 189.842 145.141C189.842 145.635 189.933 146.042 190.115 146.361C190.298 146.674 190.604 146.964 191.033 147.23C191.469 147.491 192.133 147.781 193.025 148.1C194.523 148.633 195.551 149.206 196.111 149.818C196.678 150.43 196.961 151.225 196.961 152.201ZM211.277 148.725C211.277 151.081 210.636 152.885 209.354 154.135C208.077 155.378 206.238 156 203.836 156H199.881V141.723H204.256C206.476 141.723 208.201 142.338 209.432 143.568C210.662 144.799 211.277 146.518 211.277 148.725ZM209.52 148.783C209.52 146.921 209.051 145.518 208.113 144.574C207.182 143.63 205.796 143.158 203.953 143.158H201.541V154.564H203.562C205.542 154.564 207.029 154.079 208.025 153.109C209.021 152.133 209.52 150.691 209.52 148.783ZM224.783 156H222.83L217.625 149.076L216.131 150.404V156H214.471V141.723H216.131V148.803L222.605 141.723H224.568L218.826 147.924L224.783 156ZM244.344 148.842C244.344 151.127 243.764 152.924 242.605 154.232C241.453 155.541 239.848 156.195 237.791 156.195C235.688 156.195 234.064 155.554 232.918 154.271C231.779 152.982 231.209 151.166 231.209 148.822C231.209 146.498 231.782 144.698 232.928 143.422C234.074 142.139 235.701 141.498 237.811 141.498C239.861 141.498 241.463 142.149 242.615 143.451C243.768 144.753 244.344 146.55 244.344 148.842ZM232.967 148.842C232.967 150.775 233.377 152.243 234.197 153.246C235.024 154.242 236.222 154.74 237.791 154.74C239.373 154.74 240.568 154.242 241.375 153.246C242.182 152.25 242.586 150.782 242.586 148.842C242.586 146.921 242.182 145.466 241.375 144.477C240.574 143.48 239.386 142.982 237.811 142.982C236.229 142.982 235.024 143.484 234.197 144.486C233.377 145.482 232.967 146.934 232.967 148.842ZM254.617 156V149.076C254.617 148.204 254.419 147.553 254.021 147.123C253.624 146.693 253.003 146.479 252.156 146.479C251.036 146.479 250.216 146.781 249.695 147.387C249.174 147.992 248.914 148.992 248.914 150.385V156H247.293V145.297H248.611L248.875 146.762H248.953C249.285 146.234 249.751 145.827 250.35 145.541C250.949 145.248 251.616 145.102 252.352 145.102C253.641 145.102 254.611 145.414 255.262 146.039C255.913 146.658 256.238 147.65 256.238 149.018V156H254.617ZM261.199 156H259.578V140.805H261.199V156ZM262.938 145.297H264.676L267.02 151.4C267.534 152.794 267.853 153.799 267.977 154.418H268.055C268.139 154.086 268.315 153.52 268.582 152.719C268.855 151.911 269.741 149.438 271.238 145.297H272.977L268.377 157.484C267.921 158.689 267.387 159.542 266.775 160.043C266.17 160.551 265.424 160.805 264.539 160.805C264.044 160.805 263.556 160.749 263.074 160.639V159.34C263.432 159.418 263.833 159.457 264.275 159.457C265.389 159.457 266.183 158.832 266.658 157.582L267.254 156.059L262.938 145.297Z" fill="black"/>
<defs>
<clipPath id="clip0">
<rect x="26" y="51" width="347" height="42" fill="white"/>
</clipPath>
</defs>
</svg>
